<?xml version="1.0" encoding="UTF-8" standalone="no"?>
<!-- Created with Inkscape (http://www.inkscape.org/) -->

<svg
   width="210mm"
   height="297mm"
   viewBox="0 0 210 297"
   version="1.1"
   id="svg18260"
   inkscape:version="1.2 (dc2aedaf03, 2022-05-15)"
   sodipodi:docname="Desordre.svg"
   xmlns:inkscape="http://www.inkscape.org/namespaces/inkscape"
   xmlns:sodipodi="http://sodipodi.sourceforge.net/DTD/sodipodi-0.dtd"
   xmlns="http://www.w3.org/2000/svg"
   xmlns:svg="http://www.w3.org/2000/svg">
  <sodipodi:namedview
     id="namedview18262"
     pagecolor="#ffffff"
     bordercolor="#000000"
     borderopacity="0.25"
     inkscape:showpageshadow="2"
     inkscape:pageopacity="0.0"
     inkscape:pagecheckerboard="0"
     inkscape:deskcolor="#d1d1d1"
     inkscape:document-units="mm"
     showgrid="false"
     inkscape:zoom="0.74564394"
     inkscape:cx="139.47676"
     inkscape:cy="523.03785"
     inkscape:window-width="1920"
     inkscape:window-height="1017"
     inkscape:window-x="-8"
     inkscape:window-y="-8"
     inkscape:window-maximized="1"
     inkscape:current-layer="layer1" />
  <defs
     id="defs18257" />
  <g
     inkscape:label="Calque 1"
     inkscape:groupmode="layer"
     id="layer1">
    <path
       sodipodi:type="star"
       style="fill:#ff00ff;stroke-width:1;fill-opacity:0.7596153"
       id="path18679"
       inkscape:flatsided="false"
       sodipodi:sides="5"
       sodipodi:cx="28.387094"
       sodipodi:cy="244.48386"
       sodipodi:r1="39.181973"
       sodipodi:r2="19.590984"
       sodipodi:arg1="0.90737032"
       sodipodi:arg2="1.5356888"
       inkscape:rounded="0"
       inkscape:randomized="0"
       d="M 52.516128,275.35483 29.074744,264.06277 6.4833396,276.97158 9.9789379,251.18807 -9.2792037,233.69141 l 25.6017817,-4.64304 10.689219,-23.72234 12.327173,22.91396 25.864442,2.83545 -17.98317,18.80464 z"
       inkscape:transform-center-x="0.42499068"
       inkscape:transform-center-y="-3.3350529" />
    <path
       sodipodi:type="star"
       style="fill:#d35f8d;stroke-width:1;fill-opacity:0.7596153"
       id="path18681"
       inkscape:flatsided="false"
       sodipodi:sides="5"
       sodipodi:cx="150.09676"
       sodipodi:cy="51.096775"
       sodipodi:r1="34.607235"
       sodipodi:r2="17.303616"
       sodipodi:arg1="2.8717435"
       sodipodi:arg2="3.500062"
       inkscape:rounded="0"
       inkscape:randomized="0"
       d="m 116.74192,60.322581 17.15113,-15.296629 -2.87777,-22.800582 19.84795,11.584774 20.79536,-9.782685 -4.88442,22.456413 15.73001,16.754551 -22.86669,2.294053 -11.07368,20.137566 -9.24797,-21.03861 z"
       inkscape:transform-center-x="0.47370907"
       inkscape:transform-center-y="2.8509303" />
    <path
       sodipodi:type="star"
       style="fill:#8080ff;stroke-width:1;fill-opacity:0.7596153"
       id="path18683"
       inkscape:flatsided="false"
       sodipodi:sides="5"
       sodipodi:cx="94.387093"
       sodipodi:cy="41.161289"
       sodipodi:r1="10.098887"
       sodipodi:r2="5.0494428"
       sodipodi:arg1="1.8925469"
       sodipodi:arg2="2.5208654"
       inkscape:rounded="0"
       inkscape:randomized="0"
       d="m 91.193544,50.741935 -0.913949,-6.643754 -5.991099,-3.013555 6.03616,-2.92225 1.01471,-6.629113 4.644501,4.837704 6.618223,-1.083462 -3.1657,5.912116 3.07558,5.959496 -6.601014,-1.183816 z"
       inkscape:transform-center-x="0.94180062"
       inkscape:transform-center-y="-0.023690636" />
    <path
       sodipodi:type="star"
       style="fill:#ff8080;stroke-width:1;fill-opacity:0.7596153"
       id="path18685"
       inkscape:flatsided="false"
       sodipodi:sides="5"
       sodipodi:cx="36.193546"
       sodipodi:cy="95.80645"
       sodipodi:r1="15.809249"
       sodipodi:r2="7.9046235"
       sodipodi:arg1="0.76952648"
       sodipodi:arg2="1.397845"
       inkscape:rounded="0"
       inkscape:randomized="0"
       d="m 47.548385,106.80645 -9.994529,-3.2133 -8.313093,6.41158 -0.03245,-10.498327 -8.666666,-5.924933 9.974477,-3.275019 2.956799,-10.073394 6.19701,8.474254 10.494069,-0.300767 -6.144513,8.512396 z"
       inkscape:transform-center-x="0.84071817"
       inkscape:transform-center-y="-0.68755789" />
    <path
       sodipodi:type="star"
       style="fill:#00ffff;stroke-width:1;fill-opacity:0.7596153"
       id="path18687"
       inkscape:flatsided="false"
       sodipodi:sides="5"
       sodipodi:cx="113.54839"
       sodipodi:cy="150.45161"
       sodipodi:r1="35.173805"
       sodipodi:r2="17.586901"
       sodipodi:arg1="1.0303768"
       sodipodi:arg2="1.6586954"
       inkscape:rounded="0"
       inkscape:randomized="0"
       d="m 131.64517,180.6129 -19.64066,-12.64228 -21.548996,9.0124 5.95423,-22.58606 -15.230309,-17.70932 23.320575,-1.31667 12.13615,-19.95737 8.45867,21.77231 22.73086,5.375 -18.09282,14.77269 z"
       inkscape:transform-center-x="-0.95417004"
       inkscape:transform-center-y="-2.4383634" />
    <path
       sodipodi:type="star"
       style="fill:#d4aa00;stroke-width:1;fill-opacity:0.7596153"
       id="path18689"
       inkscape:flatsided="false"
       sodipodi:sides="5"
       sodipodi:cx="161.09677"
       sodipodi:cy="234.90323"
       sodipodi:r1="8.4642239"
       sodipodi:r2="4.2321115"
       sodipodi:arg1="0.99442111"
       sodipodi:arg2="1.6227396"
       inkscape:rounded="0"
       inkscape:randomized="0"
       d="m 165.70967,242 -4.83263,-2.87037 -5.10424,2.35375 1.23652,-5.4831 -3.81585,-4.12707 5.59685,-0.51837 2.74591,-4.90442 2.22252,5.16273 5.51292,1.09597 -4.22325,3.70912 z"
       inkscape:transform-center-x="-0.13579923"
       inkscape:transform-center-y="-0.67801956" />
    <path
       sodipodi:type="star"
       style="fill:#186089;stroke-width:1;fill-opacity:0.7596153"
       id="path18691"
       inkscape:flatsided="false"
       sodipodi:sides="5"
       sodipodi:cx="185.2258"
       sodipodi:cy="163.22581"
       sodipodi:r1="6.9714746"
       sodipodi:r2="3.4857371"
       sodipodi:arg1="0.25732371"
       sodipodi:arg2="0.88564225"
       inkscape:rounded="0"
       inkscape:randomized="0"
       d="m 191.96774,165.00001 -4.53619,0.92489 -1.80974,4.26113 -2.28138,-4.02836 -4.61182,-0.4044 3.12622,-3.41455 -1.04053,-4.51107 4.21349,1.91806 3.96874,-2.3836 -0.52214,4.59998 z"
       inkscape:transform-center-x="-0.12237281"
       inkscape:transform-center-y="0.54825389" />
    <path
       sodipodi:type="star"
       style="fill:#ff6600;stroke-width:1;fill-opacity:0.7596153"
       id="path18693"
       inkscape:flatsided="false"
       sodipodi:sides="5"
       sodipodi:cx="104.67742"
       sodipodi:cy="266.83871"
       sodipodi:r1="10.727638"
       sodipodi:r2="5.3638182"
       sodipodi:arg1="0.59717666"
       sodipodi:arg2="1.2254952"
       inkscape:rounded="0"
       inkscape:randomized="0"
       d="m 113.54839,272.87097 -7.05542,-0.98504 -4.81129,5.25365 -1.24341,-7.01451 -6.483285,-2.95233 6.286955,-3.35015 0.80439,-7.0783 5.12896,4.94399 6.98043,-1.42229 -3.11708,6.40571 z"
       inkscape:transform-center-x="0.92573543"
       inkscape:transform-center-y="0.10321595" />
    <path
       sodipodi:type="star"
       style="fill:#800000;stroke-width:1;fill-opacity:0.75"
       id="path18695"
       inkscape:flatsided="false"
       sodipodi:sides="5"
       sodipodi:cx="197.64516"
       sodipodi:cy="285.29031"
       sodipodi:r1="26.183634"
       sodipodi:r2="13.091815"
       sodipodi:arg1="-2.677945"
       sodipodi:arg2="-2.0496265"
       inkscape:rounded="0"
       inkscape:randomized="0"
       d="m 174.2258,273.58064 17.38742,0.0902 9.93152,-14.27218 5.28719,16.5643 16.64266,5.03509 -14.11976,10.14706 0.35421,17.38404 -14.01368,-10.29307 -16.42375,5.70883 5.45883,-16.50853 z"
       inkscape:transform-center-x="-1.205036"
       inkscape:transform-center-y="-1.3263735" />
    <path
       sodipodi:type="star"
       style="fill:#808080;stroke-width:1;fill-opacity:0.7596153"
       id="path18697"
       inkscape:flatsided="false"
       sodipodi:sides="5"
       sodipodi:cx="129.16129"
       sodipodi:cy="218.22581"
       sodipodi:r1="35.740204"
       sodipodi:r2="17.870098"
       sodipodi:arg1="0.50806282"
       sodipodi:arg2="1.1363814"
       inkscape:rounded="0"
       inkscape:randomized="0"
       d="m 160.38709,235.61291 -23.70464,-1.17684 -14.40797,18.86016 -6.2059,-22.90812 -22.389382,-7.87468 19.869192,-12.98116 0.57057,-23.72698 18.48573,14.88532 22.74201,-6.78939 -8.44437,22.18079 z"
       inkscape:transform-center-x="2.1281419"
       inkscape:transform-center-y="1.3249421" />
    <path
       sodipodi:type="star"
       style="fill:#00ff00;stroke-width:1;fill-opacity:0.7596153"
       id="path18699"
       inkscape:flatsided="false"
       sodipodi:sides="5"
       sodipodi:cx="169.96774"
       sodipodi:cy="135.19354"
       sodipodi:r1="60.482048"
       sodipodi:r2="30.241018"
       sodipodi:arg1="2.8254079"
       sodipodi:arg2="3.4537264"
       inkscape:rounded="0"
       inkscape:randomized="0"
       d="m 112.48387,153.99999 28.70409,-28.09316 -6.86971,-39.572185 35.58824,18.617945 35.51253,-18.761959 -6.70935,39.599689 28.81766,27.97666 -39.73484,5.85601 -17.70224,36.05248 -17.84814,-35.98048 z"
       inkscape:transform-center-x="-0.037854085"
       inkscape:transform-center-y="5.7395046" />
    <path
       sodipodi:type="star"
       style="fill:#186089;stroke-width:1;fill-opacity:0.7596153"
       id="path18701"
       inkscape:flatsided="false"
       sodipodi:sides="5"
       sodipodi:cx="25.903225"
       sodipodi:cy="150.45161"
       sodipodi:r1="5.2750564"
       sodipodi:r2="2.6375277"
       sodipodi:arg1="0.83298127"
       sodipodi:arg2="1.4612998"
       inkscape:rounded="0"
       inkscape:randomized="0"
       d="m 29.451612,154.35484 -3.260164,-1.28149 -2.903899,1.95914 0.211326,-3.4966 -2.760614,-2.15636 3.390771,-0.87953 1.197746,-3.29185 1.884285,2.95303 3.500862,0.12188 -2.226219,2.7046 z"
       inkscape:transform-center-x="0.17813221"
       inkscape:transform-center-y="-0.33129481" />
    <path
       sodipodi:type="star"
       style="fill:#ff00ff;stroke-width:1;fill-opacity:0.7596153"
       id="path18703"
       inkscape:flatsided="false"
       sodipodi:sides="5"
       sodipodi:cx="67.774193"
       sodipodi:cy="175.29031"
       sodipodi:r1="3.0317433"
       sodipodi:r2="1.5158713"
       sodipodi:arg1="1.2120257"
       sodipodi:arg2="1.8403442"
       inkscape:rounded="0"
       inkscape:randomized="0"
       d="m 68.838709,178.12902 -1.468186,-1.37757 -1.96715,0.42849 0.856457,-1.82202 -1.0154,-1.73846 1.997505,0.2515 1.339598,-1.50292 0.378069,1.97746 1.843318,0.80961 -1.763846,0.97063 z"
       inkscape:transform-center-x="-0.24948094"
       inkscape:transform-center-y="-0.041782995" />
    <path
       sodipodi:type="star"
       style="fill:#ff0000;stroke-width:1;fill-opacity:0.7596153"
       id="path18705"
       inkscape:flatsided="false"
       sodipodi:sides="5"
       sodipodi:cx="61.387096"
       sodipodi:cy="191.25806"
       sodipodi:r1="2.2441969"
       sodipodi:r2="1.1220982"
       sodipodi:arg1="1.2490458"
       sodipodi:arg2="1.8773643"
       inkscape:rounded="0"
       inkscape:randomized="0"
       d="m 62.096774,193.38709 -1.048314,-1.05925 -1.466891,0.26307 0.683462,-1.32434 -0.703489,-1.3138 1.470716,0.24077 1.032111,-1.07504 0.225491,1.47313 1.341369,0.64939 -1.331355,0.66968 z"
       inkscape:transform-center-x="-0.20928799"
       inkscape:transform-center-y="-0.0052668801" />
    <path
       sodipodi:type="star"
       style="fill:#c83737;stroke-width:1;fill-opacity:0.7596153"
       id="path18707"
       inkscape:flatsided="false"
       sodipodi:sides="5"
       sodipodi:cx="80.903221"
       sodipodi:cy="206.16129"
       sodipodi:r1="3.052438"
       sodipodi:r2="1.5262187"
       sodipodi:arg1="0.95054684"
       sodipodi:arg2="1.5788654"
       inkscape:rounded="0"
       inkscape:randomized="0"
       d="m 82.677415,208.64516 -1.786509,-0.95771 -1.801731,0.92875 0.358768,-1.99501 -1.440057,-1.42655 2.008239,-0.27529 0.911726,-1.8104 0.882393,1.82488 2.003535,0.30766 -1.46289,1.40312 z"
       inkscape:transform-center-x="-0.0076100666"
       inkscape:transform-center-y="-0.28423642" />
    <path
       sodipodi:type="star"
       style="fill:#186089;stroke-width:1;fill-opacity:0.7596153"
       id="path18709"
       inkscape:flatsided="false"
       sodipodi:sides="5"
       sodipodi:cx="87.290321"
       sodipodi:cy="116.74194"
       sodipodi:r1="2.4838707"
       sodipodi:r2="1.2419353"
       sodipodi:arg1="0"
       sodipodi:arg2="0.62831853"
       inkscape:rounded="0"
       inkscape:randomized="0"
       d="m 89.774192,116.74194 -1.479124,0.72999 -0.237188,1.63231 -1.151338,-1.18115 -1.625714,0.27884 0.767558,-1.45999 -0.767558,-1.45998 1.625714,0.27883 1.151338,-1.18115 0.237188,1.63231 z"
       inkscape:transform-center-x="-0.23718747"
       inkscape:transform-center-y="-1.4707645e-06" />
    <path
       sodipodi:type="star"
       style="fill:#186089;stroke-width:1;fill-opacity:0.7596153"
       id="path18711"
       inkscape:flatsided="false"
       sodipodi:sides="5"
       sodipodi:cx="45.064518"
       sodipodi:cy="48.967743"
       sodipodi:r1="5.5541043"
       sodipodi:r2="2.7770522"
       sodipodi:arg1="1.1071487"
       sodipodi:arg2="1.7354672"
       inkscape:rounded="0"
       inkscape:randomized="0"
       d="m 47.548389,53.935485 -2.939107,-2.228257 -3.501809,1.157933 1.210964,-3.483825 -2.183378,-2.972598 3.687523,0.07513 2.152407,-2.995099 1.068051,3.530261 3.51364,1.121524 -3.027432,2.106687 z"
       inkscape:transform-center-x="-0.28135063"
       inkscape:transform-center-y="-0.25561483" />
    <path
       sodipodi:type="star"
       style="fill:#000000;stroke-width:1;fill-opacity:0.7596153"
       id="path18713"
       inkscape:flatsided="false"
       sodipodi:sides="5"
       sodipodi:cx="100.77419"
       sodipodi:cy="81.258064"
       sodipodi:r1="7.184936"
       sodipodi:r2="3.5924683"
       sodipodi:arg1="0.9964915"
       sodipodi:arg2="1.62481"
       inkscape:rounded="0"
       inkscape:randomized="0"
       d="m 104.67742,87.290322 -4.09718,-2.445029 -4.336902,1.98903 1.059264,-4.6522 -3.231857,-3.509999 4.751835,-0.430189 2.33951,-4.158328 1.87753,4.386328 4.67775,0.940011 -3.59145,3.141089 z"
       inkscape:transform-center-x="-0.11986528"
       inkscape:transform-center-y="-0.57110091" />
    <path
       sodipodi:type="star"
       style="fill:#186089;stroke-width:1;fill-opacity:0.7596153"
       id="path18715"
       inkscape:flatsided="false"
       sodipodi:sides="5"
       sodipodi:cx="201.54839"
       sodipodi:cy="19.161289"
       sodipodi:r1="1.7741936"
       sodipodi:r2="0.88709682"
       sodipodi:arg1="0.92729522"
       sodipodi:arg2="1.5556137"
       inkscape:rounded="0"
       inkscape:randomized="0"
       d="m 202.6129,20.580644 -1.05105,-0.53236 -1.0344,0.564025 0.18152,-1.164115 -0.85607,-0.80948 1.16323,-0.187102 0.50532,-1.064312 0.5374,1.048479 1.16838,0.1517 -0.8311,0.835098 z"
       inkscape:transform-center-x="0.0083261582"
       inkscape:transform-center-y="-0.16148489" />
    <path
       sodipodi:type="star"
       style="fill:#005522;stroke-width:1;fill-opacity:0.7596153"
       id="path18717"
       inkscape:flatsided="false"
       sodipodi:sides="5"
       sodipodi:cx="26.258064"
       sodipodi:cy="15.258064"
       sodipodi:r1="4.2728238"
       sodipodi:r2="2.1364119"
       sodipodi:arg1="0.84415399"
       sodipodi:arg2="1.4724725"
       inkscape:rounded="0"
       inkscape:randomized="0"
       d="m 29.096774,18.451613 -2.628988,-1.067455 -2.369757,1.56054 0.202808,-2.830177 -2.216458,-1.77154 2.75433,-0.681691 0.999912,-2.655412 1.499461,2.408869 2.834437,0.130405 -1.827612,2.170454 z"
       inkscape:transform-center-x="0.12961557"
       inkscape:transform-center-y="-0.28277646" />
    <path
       sodipodi:type="star"
       style="fill:#0000ff;stroke-width:1;fill-opacity:0.7596153"
       id="path18719"
       inkscape:flatsided="false"
       sodipodi:sides="5"
       sodipodi:cx="16.67742"
       sodipodi:cy="173.51611"
       sodipodi:r1="37.6129"
       sodipodi:r2="18.80645"
       sodipodi:arg1="1.5707963"
       sodipodi:arg2="2.1991149"
       inkscape:rounded="0"
       inkscape:randomized="0"
       d="M 16.677421,211.12901 5.6232651,188.73085 -19.094573,185.13914 -1.2085768,167.7046 -5.4308889,143.08664 16.67742,154.70966 l 22.108307,-11.62302 -4.22231,24.61796 17.885996,17.43454 -24.71784,3.59171 z"
       inkscape:transform-center-y="3.5917104" />
    <path
       sodipodi:type="star"
       style="fill:#808000;stroke-width:1;fill-opacity:0.7596153"
       id="path18721"
       inkscape:flatsided="false"
       sodipodi:sides="5"
       sodipodi:cx="63.870968"
       sodipodi:cy="67.419357"
       sodipodi:r1="30.970734"
       sodipodi:r2="15.485366"
       sodipodi:arg1="1.6510831"
       sodipodi:arg2="2.2794017"
       inkscape:rounded="0"
       inkscape:randomized="0"
       d="M 61.387098,98.290326 53.793471,79.176934 33.743374,74.596711 49.57473,61.468379 47.73496,40.984237 65.112904,51.983874 84.025961,43.904201 78.934764,63.830682 92.463446,79.321312 71.93897,80.636917 Z"
       inkscape:transform-center-x="0.76755914"
       inkscape:transform-center-y="2.2179229" />
  </g>
</svg>
