<?xml version="1.0" encoding="UTF-8" standalone="no"?>
<!-- Created with Inkscape (http://www.inkscape.org/) -->

<svg
   width="210mm"
   height="297mm"
   viewBox="0 0 210 297"
   version="1.1"
   id="svg1475"
   inkscape:version="1.2 (dc2aedaf03, 2022-05-15)"
   sodipodi:docname="richesse.svg"
   inkscape:export-filename="richesse.png"
   inkscape:export-xdpi="96"
   inkscape:export-ydpi="96"
   xmlns:inkscape="http://www.inkscape.org/namespaces/inkscape"
   xmlns:sodipodi="http://sodipodi.sourceforge.net/DTD/sodipodi-0.dtd"
   xmlns="http://www.w3.org/2000/svg"
   xmlns:svg="http://www.w3.org/2000/svg">
  <sodipodi:namedview
     id="namedview1477"
     pagecolor="#ffffff"
     bordercolor="#000000"
     borderopacity="0.25"
     inkscape:showpageshadow="2"
     inkscape:pageopacity="0.0"
     inkscape:pagecheckerboard="0"
     inkscape:deskcolor="#d1d1d1"
     inkscape:document-units="mm"
     showgrid="false"
     inkscape:zoom="0.52724989"
     inkscape:cx="188.71507"
     inkscape:cy="512.09115"
     inkscape:window-width="1920"
     inkscape:window-height="1017"
     inkscape:window-x="-8"
     inkscape:window-y="-8"
     inkscape:window-maximized="1"
     inkscape:current-layer="layer1" />
  <defs
     id="defs1472" />
  <g
     inkscape:label="Calque 1"
     inkscape:groupmode="layer"
     id="layer1">
    <path
       style="fill:#00c280;fill-opacity:1;stroke-width:1.51095"
       d="m 97.362271,-17.3908 c 0,0 23.164739,40.970443 65.667159,43.657031 42.5024,2.686604 64.4043,42.817479 64.4043,42.817479 L 191.12458,125.068 c 0,0 -29.14265,-42.867769 -68.1928,-45.336146 C 83.881626,77.263476 58.111172,40.279591 58.111172,40.279591 Z"
       id="path3465" />
    <path
       style="fill:#00c280;fill-opacity:1;stroke-width:1"
       d="m 17.354959,68.395032 c 0,0 22.493186,21.549125 49.942391,15.147746 27.4492,-6.401367 48.98194,14.856451 48.98194,14.856451 l -12.33711,42.404591 c 0,0 -26.643592,-21.61177 -51.863235,-15.73035 C 26.859303,130.95489 3.4748137,112.42918 3.4748137,112.42918 Z"
       id="path3465-8" />
    <path
       style="fill:#00c280;fill-opacity:1;stroke-width:0.65804"
       d="m 102.29409,165.42734 c 0,0 19.47604,6.39093 33.94442,-5.21384 14.46838,-11.60475 33.29164,-5.11356 33.29164,-5.11356 l 4.73808,28.67207 c 0,0 -21.95678,-5.24782 -35.24996,5.41436 -13.29319,10.66217 -32.43833,6.31885 -32.43833,6.31885 z"
       id="path3465-3" />
    <path
       style="fill:#00c280;fill-opacity:1;stroke-width:0.446472"
       d="m 41.781663,187.70854 c 0,0 6.844967,12.10639 19.404037,12.90025 12.559066,0.79387 19.030879,12.65217 19.030879,12.65217 L 69.487557,229.8038 c 0,0 -8.611382,-12.66703 -20.150341,-13.39641 -11.538959,-0.72938 -19.153888,-11.65778 -19.153888,-11.65778 z"
       id="path3465-2" />
    <path
       style="fill:#00c280;fill-opacity:1;stroke-width:0.238899"
       d="m 69.509339,245.91939 c 0,0 3.662611,6.4779 10.38273,6.90268 6.720116,0.42478 10.183059,6.76993 10.183059,6.76993 l -5.740894,8.85176 c 0,0 -4.607786,-6.77789 -10.782063,-7.16816 -6.174276,-0.39028 -10.248879,-6.23786 -10.248879,-6.23786 z"
       id="path3465-2-1" />
    <path
       style="fill:#00c280;fill-opacity:1;stroke-width:0.409407"
       d="m 134.72198,241.73086 c 0,0 12.431,-2.84736 16.41546,-13.67707 3.98446,-10.82972 16.09978,-13.41405 16.09978,-13.41405 l 11.73074,13.7585 c 0,0 -13.38599,4.25304 -17.04682,14.20311 -3.66082,9.95007 -15.25806,13.78239 -15.25806,13.78239 z"
       id="path3465-6" />
    <path
       style="fill:#00c280;fill-opacity:1;stroke-width:0.223675"
       d="m 110.15095,282.13068 c 0,0 5.89617,-3.71214 5.99595,-10.01579 0.0998,-6.30365 5.88066,-9.82317 5.88066,-9.82317 l 8.53254,4.9772 c 0,0 -6.13489,4.60938 -6.22657,10.40102 -0.0917,5.79161 -5.38012,9.86116 -5.38012,9.86116 z"
       id="path3465-6-3" />
  </g>
</svg>
